<svg width="69" height="20" viewBox="0 0 69 20" fill="none" xmlns="http://www.w3.org/2000/svg">
<rect width="69" height="20" rx="10" fill="#20201D"/>
<path d="M8.96 5.848H11.756C13.036 5.848 14.004 6.156 14.66 6.772C15.324 7.388 15.656 8.384 15.656 9.76V10.384C15.656 11.736 15.344 12.76 14.72 13.456C14.096 14.152 13.116 14.5 11.78 14.5H8.96V5.848ZM11.78 13.276C12.196 13.276 12.552 13.228 12.848 13.132C13.144 13.036 13.384 12.88 13.568 12.664C13.752 12.448 13.888 12.168 13.976 11.824C14.064 11.472 14.108 11.044 14.108 10.54V9.748C14.108 9.22 14.056 8.784 13.952 8.44C13.848 8.088 13.692 7.812 13.484 7.612C13.284 7.412 13.032 7.272 12.728 7.192C12.424 7.112 12.068 7.072 11.66 7.072H10.436V13.276H11.78ZM18.4251 14.62C17.8491 14.62 17.3851 14.468 17.0331 14.164C16.6811 13.86 16.5051 13.392 16.5051 12.76C16.5051 12.16 16.6811 11.712 17.0331 11.416C17.3851 11.112 17.8771 10.92 18.5091 10.84L19.9491 10.648V10.156C19.9491 9.948 19.9251 9.776 19.8771 9.64C19.8291 9.504 19.7491 9.4 19.6371 9.328C19.5331 9.248 19.3891 9.192 19.2051 9.16C19.0291 9.128 18.8091 9.112 18.5451 9.112C18.2411 9.112 17.9531 9.132 17.6811 9.172C17.4171 9.212 17.1891 9.252 16.9971 9.292V8.248C17.5811 8.008 18.2851 7.888 19.1091 7.888C19.8371 7.888 20.3971 8.04 20.7891 8.344C21.1891 8.648 21.3891 9.144 21.3891 9.832V14.5H20.2011L20.0811 13.852H20.0091C19.8571 14.06 19.6571 14.24 19.4091 14.392C19.1611 14.544 18.8331 14.62 18.4251 14.62ZM18.8691 13.576C19.0931 13.576 19.2971 13.544 19.4811 13.48C19.6731 13.408 19.8291 13.316 19.9491 13.204V11.56L18.8331 11.668C18.2411 11.724 17.9451 12.064 17.9451 12.688C17.9451 13 18.0291 13.228 18.1971 13.372C18.3651 13.508 18.5891 13.576 18.8691 13.576ZM22.8888 8.008H24.3288V14.5H22.8888V8.008ZM22.8648 5.476H24.3528V6.856H22.8648V5.476ZM25.7939 8.008H27.1739V8.896H27.2459C27.3259 8.76 27.4259 8.632 27.5459 8.512C27.6739 8.392 27.8139 8.288 27.9659 8.2C28.1179 8.112 28.2739 8.044 28.4339 7.996C28.6019 7.94 28.7699 7.912 28.9379 7.912C29.1379 7.912 29.2659 7.932 29.3219 7.972V9.292C29.2579 9.276 29.1739 9.264 29.0699 9.256C28.9739 9.248 28.8899 9.244 28.8179 9.244C28.5379 9.244 28.2539 9.288 27.9659 9.376C27.6779 9.456 27.4339 9.56 27.2339 9.688V14.5H25.7939V8.008ZM30.9411 16.984C30.7731 16.984 30.5931 16.964 30.4011 16.924C30.2171 16.892 30.0771 16.844 29.9811 16.78V15.76C30.1651 15.8 30.3771 15.82 30.6171 15.82C30.9051 15.82 31.1411 15.756 31.3251 15.628C31.5171 15.5 31.6691 15.284 31.7811 14.98L32.0091 14.368L29.7531 8.008H31.2771L31.9851 10.12C32.0971 10.456 32.1971 10.812 32.2851 11.188C32.3811 11.556 32.4611 11.892 32.5251 12.196C32.6051 12.556 32.6731 12.908 32.7291 13.252H32.7651C32.8291 12.908 32.9011 12.556 32.9811 12.196C33.0451 11.892 33.1211 11.556 33.2091 11.188C33.3051 10.812 33.4091 10.456 33.5211 10.12L34.1931 8.008H35.6211L33.1371 15.208C32.9291 15.824 32.6571 16.272 32.3211 16.552C31.9851 16.84 31.5251 16.984 30.9411 16.984ZM40.0214 9.148H38.9654V8.008H40.0214V7.204C40.0214 6.5 40.2134 5.984 40.5974 5.656C40.9894 5.328 41.4894 5.164 42.0974 5.164C42.3934 5.164 42.6454 5.188 42.8534 5.236C43.0694 5.276 43.2334 5.328 43.3454 5.392V6.4C43.2574 6.376 43.1374 6.356 42.9854 6.34C42.8334 6.316 42.6654 6.304 42.4814 6.304C42.1454 6.304 41.8894 6.384 41.7134 6.544C41.5454 6.704 41.4614 6.968 41.4614 7.336V8.008H43.0094V9.148H41.4614V14.5H40.0214V9.148ZM43.9463 8.008H45.3263V8.896H45.3983C45.4783 8.76 45.5783 8.632 45.6983 8.512C45.8263 8.392 45.9663 8.288 46.1183 8.2C46.2703 8.112 46.4263 8.044 46.5863 7.996C46.7543 7.94 46.9223 7.912 47.0903 7.912C47.2903 7.912 47.4183 7.932 47.4743 7.972V9.292C47.4103 9.276 47.3263 9.264 47.2223 9.256C47.1263 9.248 47.0423 9.244 46.9703 9.244C46.6903 9.244 46.4063 9.288 46.1183 9.376C45.8303 9.456 45.5863 9.56 45.3863 9.688V14.5H43.9463V8.008ZM51.1723 14.62C50.1163 14.62 49.3363 14.36 48.8323 13.84C48.3363 13.32 48.0883 12.56 48.0883 11.56V10.972C48.0883 10.444 48.1603 9.988 48.3043 9.604C48.4483 9.212 48.6483 8.892 48.9043 8.644C49.1603 8.388 49.4603 8.2 49.8043 8.08C50.1483 7.952 50.5243 7.888 50.9323 7.888C51.8763 7.888 52.5563 8.132 52.9723 8.62C53.3883 9.108 53.5963 9.86 53.5963 10.876V11.68H49.5763C49.5843 12.04 49.6283 12.336 49.7083 12.568C49.7883 12.792 49.9043 12.968 50.0563 13.096C50.2163 13.224 50.4123 13.312 50.6443 13.36C50.8763 13.408 51.1483 13.432 51.4603 13.432C51.8843 13.432 52.2403 13.392 52.5283 13.312C52.8243 13.224 53.1123 13.112 53.3923 12.976V14.02C53.1763 14.156 52.8883 14.292 52.5283 14.428C52.1763 14.556 51.7243 14.62 51.1723 14.62ZM50.9203 8.968C50.7523 8.968 50.5883 8.992 50.4283 9.04C50.2763 9.08 50.1363 9.164 50.0083 9.292C49.8803 9.412 49.7763 9.584 49.6963 9.808C49.6163 10.024 49.5723 10.308 49.5643 10.66H52.1563C52.1563 10.012 52.0523 9.568 51.8443 9.328C51.6363 9.088 51.3283 8.968 50.9203 8.968ZM57.5238 14.62C56.4678 14.62 55.6878 14.36 55.1838 13.84C54.6878 13.32 54.4398 12.56 54.4398 11.56V10.972C54.4398 10.444 54.5118 9.988 54.6558 9.604C54.7998 9.212 54.9998 8.892 55.2558 8.644C55.5118 8.388 55.8118 8.2 56.1558 8.08C56.4998 7.952 56.8758 7.888 57.2838 7.888C58.2278 7.888 58.9078 8.132 59.3238 8.62C59.7398 9.108 59.9478 9.86 59.9478 10.876V11.68H55.9278C55.9358 12.04 55.9798 12.336 56.0598 12.568C56.1398 12.792 56.2558 12.968 56.4078 13.096C56.5678 13.224 56.7638 13.312 56.9958 13.36C57.2278 13.408 57.4998 13.432 57.8118 13.432C58.2358 13.432 58.5918 13.392 58.8798 13.312C59.1758 13.224 59.4638 13.112 59.7438 12.976V14.02C59.5278 14.156 59.2398 14.292 58.8798 14.428C58.5278 14.556 58.0758 14.62 57.5238 14.62ZM57.2718 8.968C57.1038 8.968 56.9398 8.992 56.7798 9.04C56.6278 9.08 56.4878 9.164 56.3598 9.292C56.2318 9.412 56.1278 9.584 56.0478 9.808C55.9678 10.024 55.9238 10.308 55.9158 10.66H58.5078C58.5078 10.012 58.4038 9.568 58.1958 9.328C57.9878 9.088 57.6798 8.968 57.2718 8.968Z" fill="#F9F9F5"/>
</svg>
