<svg width="101" height="31" viewBox="0 0 101 31" fill="none" xmlns="http://www.w3.org/2000/svg">
<path d="M0 27.8009L2.77473 26.8002V3.33655L0.0412092 2.2944V0H24.1484L24.3132 8.50309H20.8352L19.3022 3.04353H11.5137V13.7139H15.4505L16.6511 10.2115H19.3022V20.5086H16.6511L15.4505 16.8818H11.5137V26.8334L14.7445 27.7898V30.0621H0V27.8009Z" fill="#20201D"/>
<path d="M29.9066 19.2564C30.1538 23.9557 31.8956 26.1672 36.8654 26.1672C38.8522 26.2148 40.8187 25.7565 42.5824 24.8348V26.9191C41.3379 28.6274 38.1868 30.6703 33.7912 30.6703C26.0989 30.6703 22.1511 26.0013 22.1511 18.5404C22.1511 11.2453 26.4588 6.70351 33.4148 6.70351C39.9588 6.70351 43.3544 9.99583 43.3544 18.6648V19.2481L29.9066 19.2564ZM29.783 16.9647L36.2033 16.5473C36.2033 10.7118 35.2088 9.00344 33.2198 9.00344C31.1071 9.00344 29.783 11.3393 29.783 16.9647Z" fill="#20201D"/>
<path d="M56.1703 16.7159V13.5894C56.1703 10.463 55.1758 9.1665 52.5247 9.1665C51.8534 9.15759 51.184 9.24225 50.5357 9.41805L49 14.4215H45.7033V8.12988C47.8571 7.46091 50.5494 6.67031 54.1126 6.67031C60.2418 6.67031 63.7637 8.37866 63.7637 13.548V26.9688L65.9176 28.0524V29.5535C65.1291 30.1063 63.445 30.5956 61.6099 30.5956C58.75 30.5956 57.3846 29.5535 56.7637 27.928H56.5137C55.1896 29.6364 53.3654 30.6785 50.4698 30.6785C46.6236 30.6785 44.0494 28.3841 44.0494 24.4671C44.0494 20.633 46.3681 18.5072 51.2143 17.6724L56.1703 16.7159ZM56.1703 26.1754V19.0905L54.3462 19.2978C52.3159 19.5079 51.3654 20.68 51.3654 23.2176C51.3654 26.134 52.5247 26.8444 54.1813 26.8444C55.044 26.8444 55.7555 26.5929 56.1703 26.1754Z" fill="#20201D"/>
<path d="M84.794 22.6344C84.794 27.718 81.772 30.5956 75.0165 30.5956C72.3654 30.5956 69.467 30.1782 67.1896 29.3434L66.9396 23.3835H69.6731L71.4121 27.342C72.5035 27.8929 73.7136 28.1626 74.9341 28.1271C77.5028 28.1271 78.6621 27.002 78.6621 25.2522C78.6621 23.7511 77.8764 22.9578 75.555 22.416L74.022 22.0456C69.1758 20.8348 66.9396 18.5017 66.9396 14.2501C66.9396 9.79126 69.8819 6.62333 76.3434 6.62333C78.9945 6.62333 81.5632 6.89977 83.3022 7.58256V13.1665H80.5687L79.3654 9.57288C78.7042 9.24116 77.7519 9.07438 76.5083 9.07253C74.272 9.07253 73.1539 10.0732 73.1539 11.7401C73.1539 13.2411 73.9396 13.993 76.4671 14.6593L78 15.0324C82.7637 16.2156 84.794 18.3413 84.794 22.6344Z" fill="#20201D"/>
<path d="M84.0907 10.2971V8.33722L87.3214 7.21213V3.12645L94.8599 1.91843V7.21213H99.8709V10.2971H94.8599V23.718C94.8599 26.0511 95.522 27.0103 98.0082 27.0103C98.7145 27.0178 99.4203 26.9762 100.121 26.8859V29.0531C98.7939 29.8437 96.5989 30.5099 94.0302 30.5099C89.5165 30.5099 87.3214 28.5113 87.3214 23.5991V10.2971H84.0907Z" fill="#20201D"/>
</svg>
