<svg width="119" height="36" viewBox="0 0 119 36" fill="none" xmlns="http://www.w3.org/2000/svg">
<path d="M0 32.6232L3.29794 31.4489V3.9153L0.0489798 2.69238V0H28.7018L28.8978 9.97802H24.7639L22.9419 3.57146H13.6848V16.0926H18.364L19.7909 11.9827H22.9419V24.066H19.7909L18.364 19.8101H13.6848V31.4879L17.5248 32.6102V35.2767H0V32.6232Z" fill="#20201D"/>
<path d="M35.5459 22.5965C35.8398 28.111 37.91 30.7061 43.8169 30.7061C46.1783 30.762 48.5157 30.2242 50.6119 29.1426V31.5884C49.1327 33.5931 45.3875 35.9903 40.163 35.9903C31.0202 35.9903 26.328 30.5115 26.328 21.7564C26.328 13.1959 31.448 7.86629 39.7157 7.86629C47.4936 7.86629 51.5295 11.7297 51.5295 21.9023V22.5868L35.5459 22.5965ZM35.399 19.9074L43.0299 19.4176C43.0299 12.5698 41.8479 10.5652 39.4838 10.5652C36.9728 10.5652 35.399 13.3062 35.399 19.9074Z" fill="#20201D"/>
<path d="M66.762 19.6154V15.9466C66.762 12.2779 65.58 10.7565 62.429 10.7565C61.631 10.7461 60.8354 10.8454 60.0649 11.0517L58.2396 16.923H54.3213V9.54007C56.8812 8.75506 60.0812 7.82733 64.3163 7.82733C71.6011 7.82733 75.7872 9.83202 75.7872 15.898V31.6468L78.3472 32.9184V34.6798C77.4101 35.3285 75.4085 35.9027 73.2273 35.9027C69.8281 35.9027 68.2052 34.6798 67.4673 32.7724H67.1702C65.5963 34.7771 63.4281 36 59.9865 36C55.4151 36 52.3556 33.3076 52.3556 28.7111C52.3556 24.2119 55.1115 21.7174 60.8714 20.7378L66.762 19.6154ZM66.762 30.7158V22.4019L64.5939 22.6451C62.1808 22.8917 61.051 24.2671 61.051 27.2449C61.051 30.6671 62.429 31.5008 64.3979 31.5008C65.4232 31.5008 66.2689 31.2056 66.762 30.7158Z" fill="#20201D"/>
<path d="M100.783 26.5605C100.783 32.5259 97.1912 35.9027 89.1619 35.9027C86.0109 35.9027 82.566 35.4129 79.8591 34.4332L79.5619 27.4395H82.8109L84.8778 32.0847C86.175 32.7311 87.6133 33.0477 89.0639 33.006C92.117 33.006 93.4949 31.6857 93.4949 29.6324C93.4949 27.871 92.561 26.94 89.8019 26.3042L87.9798 25.8695C82.2199 24.4487 79.5619 21.7109 79.5619 16.7219C79.5619 11.4896 83.0591 7.77221 90.739 7.77221C93.89 7.77221 96.943 8.09659 99.01 8.89782V15.4504H95.761L94.3308 11.2334C93.545 10.8441 92.413 10.6484 90.9349 10.6462C88.277 10.6462 86.948 11.8205 86.948 13.7765C86.948 15.5379 87.8819 16.4203 90.886 17.202L92.708 17.6399C98.37 19.0283 100.783 21.5228 100.783 26.5605Z" fill="#20201D"/>
<path d="M99.9471 12.0833V9.78338L103.787 8.46313V3.66875L112.747 2.2512V8.46313H118.703V12.0833H112.747V27.8321C112.747 30.5698 113.534 31.6955 116.489 31.6955C117.328 31.7043 118.167 31.6555 119 31.5495V34.0926C117.423 35.0204 114.814 35.8021 111.761 35.8021C106.396 35.8021 103.787 33.4568 103.787 27.6926V12.0833H99.9471Z" fill="#20201D"/>
</svg>
