<svg width="77" height="20" viewBox="0 0 77 20" fill="none" xmlns="http://www.w3.org/2000/svg">
<rect width="77" height="20" rx="10" fill="#EFAD27"/>
<path d="M12.548 14.644C11.932 14.644 11.38 14.572 10.892 14.428C10.404 14.276 9.988 14.04 9.644 13.72C9.308 13.392 9.048 12.972 8.864 12.46C8.68 11.948 8.588 11.328 8.588 10.6V9.856C8.588 9.064 8.696 8.404 8.912 7.876C9.128 7.34 9.416 6.912 9.776 6.592C10.144 6.272 10.564 6.044 11.036 5.908C11.516 5.772 12.02 5.704 12.548 5.704C13.124 5.704 13.6 5.756 13.976 5.86C14.352 5.964 14.668 6.08 14.924 6.208V7.444C14.796 7.396 14.656 7.344 14.504 7.288C14.36 7.232 14.196 7.18 14.012 7.132C13.828 7.084 13.62 7.044 13.388 7.012C13.156 6.98 12.892 6.964 12.596 6.964C12.116 6.964 11.716 7.036 11.396 7.18C11.076 7.316 10.824 7.508 10.64 7.756C10.456 8.004 10.324 8.292 10.244 8.62C10.172 8.948 10.136 9.3 10.136 9.676V10.564C10.136 10.98 10.168 11.364 10.232 11.716C10.296 12.068 10.416 12.372 10.592 12.628C10.768 12.876 11.012 13.072 11.324 13.216C11.636 13.36 12.044 13.432 12.548 13.432C12.788 13.432 13.024 13.412 13.256 13.372C13.488 13.332 13.684 13.28 13.844 13.216V11.272H12.296V10.096H15.272V14.128C14.944 14.264 14.544 14.384 14.072 14.488C13.608 14.592 13.1 14.644 12.548 14.644ZM18.4857 14.584C17.9897 14.584 17.5937 14.464 17.2977 14.224C17.0097 13.984 16.8657 13.58 16.8657 13.012V5.272H18.3057V12.784C18.3057 13.216 18.5337 13.432 18.9897 13.432C19.0617 13.432 19.1337 13.428 19.2057 13.42C19.2857 13.412 19.3617 13.4 19.4337 13.384V14.368C19.3297 14.432 19.2017 14.484 19.0497 14.524C18.8977 14.564 18.7097 14.584 18.4857 14.584ZM22.3113 14.62C21.6953 14.62 21.2273 14.464 20.9073 14.152C20.5953 13.84 20.4393 13.364 20.4393 12.724V8.008H21.8793V12.436C21.8793 12.796 21.9433 13.056 22.0713 13.216C22.2073 13.368 22.4673 13.444 22.8513 13.444C23.1233 13.444 23.3673 13.4 23.5833 13.312C23.8073 13.224 24.0153 13.128 24.2073 13.024V8.008H25.6473V14.5H24.4113L24.2913 13.804H24.2313C23.9593 14.036 23.6713 14.232 23.3673 14.392C23.0633 14.544 22.7113 14.62 22.3113 14.62ZM29.4462 14.584C29.1742 14.584 28.9302 14.556 28.7142 14.5C28.4982 14.444 28.3102 14.352 28.1502 14.224C27.9982 14.096 27.8782 13.928 27.7902 13.72C27.7102 13.504 27.6702 13.24 27.6702 12.928V9.148H26.6022V8.008H27.6702V6.436H29.1102V8.008H30.7782V9.148H29.1102V12.7C29.1102 12.98 29.1662 13.172 29.2782 13.276C29.3982 13.38 29.6102 13.432 29.9142 13.432C30.0502 13.432 30.2142 13.416 30.4062 13.384C30.5982 13.352 30.7502 13.312 30.8622 13.264V14.248C30.7262 14.336 30.5342 14.416 30.2862 14.488C30.0382 14.552 29.7582 14.584 29.4462 14.584ZM34.684 14.62C33.628 14.62 32.848 14.36 32.344 13.84C31.848 13.32 31.6 12.56 31.6 11.56V10.972C31.6 10.444 31.672 9.988 31.816 9.604C31.96 9.212 32.16 8.892 32.416 8.644C32.672 8.388 32.972 8.2 33.316 8.08C33.66 7.952 34.036 7.888 34.444 7.888C35.388 7.888 36.068 8.132 36.484 8.62C36.9 9.108 37.108 9.86 37.108 10.876V11.68H33.088C33.096 12.04 33.14 12.336 33.22 12.568C33.3 12.792 33.416 12.968 33.568 13.096C33.728 13.224 33.924 13.312 34.156 13.36C34.388 13.408 34.66 13.432 34.972 13.432C35.396 13.432 35.752 13.392 36.04 13.312C36.336 13.224 36.624 13.112 36.904 12.976V14.02C36.688 14.156 36.4 14.292 36.04 14.428C35.688 14.556 35.236 14.62 34.684 14.62ZM34.432 8.968C34.264 8.968 34.1 8.992 33.94 9.04C33.788 9.08 33.648 9.164 33.52 9.292C33.392 9.412 33.288 9.584 33.208 9.808C33.128 10.024 33.084 10.308 33.076 10.66H35.668C35.668 10.012 35.564 9.568 35.356 9.328C35.148 9.088 34.84 8.968 34.432 8.968ZM38.2875 8.008H39.6795V8.704H39.7395C39.9955 8.464 40.2995 8.268 40.6515 8.116C41.0115 7.964 41.3875 7.888 41.7795 7.888C42.3795 7.888 42.8275 8.028 43.1235 8.308C43.4275 8.588 43.5795 9.044 43.5795 9.676V14.5H42.1395V10.036C42.1395 9.708 42.0715 9.476 41.9355 9.34C41.7995 9.196 41.5235 9.124 41.1075 9.124C40.8755 9.124 40.6315 9.16 40.3755 9.232C40.1275 9.296 39.9115 9.376 39.7275 9.472V14.5H38.2875V8.008ZM48.5996 9.148H47.5436V8.008H48.5996V7.204C48.5996 6.5 48.7916 5.984 49.1756 5.656C49.5676 5.328 50.0676 5.164 50.6756 5.164C50.9716 5.164 51.2236 5.188 51.4316 5.236C51.6476 5.276 51.8116 5.328 51.9236 5.392V6.4C51.8356 6.376 51.7156 6.356 51.5636 6.34C51.4116 6.316 51.2436 6.304 51.0596 6.304C50.7236 6.304 50.4676 6.384 50.2916 6.544C50.1236 6.704 50.0396 6.968 50.0396 7.336V8.008H51.5876V9.148H50.0396V14.5H48.5996V9.148ZM52.5244 8.008H53.9044V8.896H53.9764C54.0564 8.76 54.1564 8.632 54.2764 8.512C54.4044 8.392 54.5444 8.288 54.6964 8.2C54.8484 8.112 55.0044 8.044 55.1644 7.996C55.3324 7.94 55.5004 7.912 55.6684 7.912C55.8684 7.912 55.9964 7.932 56.0524 7.972V9.292C55.9884 9.276 55.9044 9.264 55.8004 9.256C55.7044 9.248 55.6204 9.244 55.5484 9.244C55.2684 9.244 54.9844 9.288 54.6964 9.376C54.4084 9.456 54.1644 9.56 53.9644 9.688V14.5H52.5244V8.008ZM59.7504 14.62C58.6944 14.62 57.9144 14.36 57.4104 13.84C56.9144 13.32 56.6664 12.56 56.6664 11.56V10.972C56.6664 10.444 56.7384 9.988 56.8824 9.604C57.0264 9.212 57.2264 8.892 57.4824 8.644C57.7384 8.388 58.0384 8.2 58.3824 8.08C58.7264 7.952 59.1024 7.888 59.5104 7.888C60.4544 7.888 61.1344 8.132 61.5504 8.62C61.9664 9.108 62.1744 9.86 62.1744 10.876V11.68H58.1544C58.1624 12.04 58.2064 12.336 58.2864 12.568C58.3664 12.792 58.4824 12.968 58.6344 13.096C58.7944 13.224 58.9904 13.312 59.2224 13.36C59.4544 13.408 59.7264 13.432 60.0384 13.432C60.4624 13.432 60.8184 13.392 61.1064 13.312C61.4024 13.224 61.6904 13.112 61.9704 12.976V14.02C61.7544 14.156 61.4664 14.292 61.1064 14.428C60.7544 14.556 60.3024 14.62 59.7504 14.62ZM59.4984 8.968C59.3304 8.968 59.1664 8.992 59.0064 9.04C58.8544 9.08 58.7144 9.164 58.5864 9.292C58.4584 9.412 58.3544 9.584 58.2744 9.808C58.1944 10.024 58.1504 10.308 58.1424 10.66H60.7344C60.7344 10.012 60.6304 9.568 60.4224 9.328C60.2144 9.088 59.9064 8.968 59.4984 8.968ZM66.1019 14.62C65.0459 14.62 64.2659 14.36 63.7619 13.84C63.2659 13.32 63.0179 12.56 63.0179 11.56V10.972C63.0179 10.444 63.0899 9.988 63.2339 9.604C63.3779 9.212 63.5779 8.892 63.8339 8.644C64.0899 8.388 64.3899 8.2 64.7339 8.08C65.0779 7.952 65.4539 7.888 65.8619 7.888C66.8059 7.888 67.4859 8.132 67.9019 8.62C68.3179 9.108 68.5259 9.86 68.5259 10.876V11.68H64.5059C64.5139 12.04 64.5579 12.336 64.6379 12.568C64.7179 12.792 64.8339 12.968 64.9859 13.096C65.1459 13.224 65.3419 13.312 65.5739 13.36C65.8059 13.408 66.0779 13.432 66.3899 13.432C66.8139 13.432 67.1699 13.392 67.4579 13.312C67.7539 13.224 68.0419 13.112 68.3219 12.976V14.02C68.1059 14.156 67.8179 14.292 67.4579 14.428C67.1059 14.556 66.6539 14.62 66.1019 14.62ZM65.8499 8.968C65.6819 8.968 65.5179 8.992 65.3579 9.04C65.2059 9.08 65.0659 9.164 64.9379 9.292C64.8099 9.412 64.7059 9.584 64.6259 9.808C64.5459 10.024 64.5019 10.308 64.4939 10.66H67.0859C67.0859 10.012 66.9819 9.568 66.7739 9.328C66.5659 9.088 66.2579 8.968 65.8499 8.968Z" fill="#20201D"/>
</svg>
