<svg width="18" height="18" viewBox="0 0 18 18" fill="none" xmlns="http://www.w3.org/2000/svg">
<path d="M12.7275 0.75H11.9775C11.9775 0.75 10.2563 7.63875 10.1963 7.87125C10.14 8.10375 10.2563 8.34 10.44 8.44125C10.5075 8.47875 10.8375 8.66999 11.2275 8.89124V16.875L11.6025 17.25H12.3525L12.7275 16.875V0.75Z" fill="#20201D"/>
<path d="M7.1025 0.75V5.25H6.54L6.36 0.75H5.6025L5.41875 5.25H4.85625V0.75H4.10625C4.10625 0.75 3.7725 5.42625 3.7575 5.62125C3.73875 5.8875 3.78375 6.02626 3.93 6.12376C4.41 6.44251 5.5575 7.32375 5.5275 8.25L5.23125 16.875L5.60625 17.25H6.35625L6.73125 16.875L6.435 8.26875C6.435 8.26875 6.435 8.25375 6.435 8.24625C6.405 7.3275 7.5525 6.44251 8.0325 6.12376C8.1825 6.02626 8.22375 5.8875 8.205 5.62125L7.85625 0.75H7.1025Z" fill="#20201D"/>
</svg>
