<svg width="119" height="38" viewBox="0 0 119 38" fill="none" xmlns="http://www.w3.org/2000/svg">
<path d="M27.0254 20.1963L29.0692 19.1484V3.33077H27.5237L23.7486 8.26235H23.3221L23.5628 2.76526H39.93L40.1665 8.26235H39.7189L36.0198 3.33077H34.4362V19.1152L36.4927 20.1838V20.7202H27.0254V20.1963Z" fill="#20201D"/>
<path d="M41.8091 19.4976V1.96681L40.2214 1.34309V1.01459L45.96 0H46.5639V8.29553L46.7243 8.16247C47.9954 7.06887 49.8196 6.36615 51.6438 6.36615C54.1563 6.36615 55.2669 7.76329 55.2669 10.3663V19.4976L56.6097 20.217V20.7492H49.106V20.2211L50.453 19.4976V10.333C50.453 8.90262 49.8196 8.3288 48.6288 8.3288C47.8349 8.3288 47.1508 8.57413 46.6441 8.97331V19.5184L47.9658 20.2378V20.7451H40.4578V20.2419L41.8091 19.4976Z" fill="#20201D"/>
<path d="M60.9801 14.113C61.1364 17.0112 62.4538 19.2524 65.5786 19.2524C67.0904 19.2524 68.1629 18.5622 69.1722 18.0383V18.6079C68.391 19.6599 66.4105 21.1361 63.6531 21.1361C58.8096 21.1361 56.3351 18.4873 56.3351 13.8967C56.3351 9.41007 59.0419 6.61578 63.4166 6.61578C67.5295 6.61578 69.6662 8.64081 69.6662 13.9716V14.1088H60.9801V14.113ZM60.8999 13.4476L65.1606 13.1898C65.1606 9.60134 64.5356 7.21872 63.2857 7.21872C61.9598 7.21872 60.8999 9.98389 60.8999 13.4476Z" fill="#20201D"/>
<path d="M0 27.7391C0 20.1088 5.13059 17.3936 10.8439 17.3936C13.2677 17.3936 15.5564 17.7761 16.8359 18.3L16.9457 23.6266H16.401L13.0482 18.4747C12.4739 18.2335 11.9291 18.1379 10.9241 18.1379C7.88802 18.1379 6.33406 21.5933 6.38051 27.2609C6.43963 34.0387 7.63465 37.1157 10.4216 37.1157C11.1479 37.1157 11.7053 37.0076 12.0938 36.8413V29.577L10.2527 28.5374V27.9303H19.1457V28.579L17.3342 29.577V36.7415C15.8309 37.3195 13.2931 37.8683 10.6159 37.8683C4.12136 37.8683 0 34.9036 0 27.7391Z" fill="#20201D"/>
<path d="M18.8332 24.1799V23.7391L24.8125 22.6996L25.467 22.7536V34.3549C25.467 35.752 26.1511 36.1845 27.2955 36.1845C28.0344 36.1845 28.7016 35.91 29.2337 35.2822V24.8784L27.5953 24.1799V23.7225L33.5746 22.6829L34.1742 22.737V36.0348L35.7873 36.7001V37.1242L29.8882 37.8394L29.2886 37.7854V36.0389H29.1239C28.0302 37.0327 26.5016 37.8935 24.6436 37.8935C21.7764 37.8935 20.4631 36.2261 20.4631 33.6979V24.8784L18.8332 24.1799Z" fill="#20201D"/>
<path d="M56.6308 22.6746L57.1207 22.7287V27.0241H57.2558C57.8934 23.8763 59.3038 22.6996 61.0225 22.6996C61.2969 22.6996 61.5967 22.7245 61.7614 22.8077V27.2029C61.487 27.1239 60.9971 27.0947 60.5326 27.0947C59.1687 27.0947 58.1637 27.3359 57.2811 27.7351V36.2261L58.6409 36.9704V37.5193H50.888V36.9745L52.2857 36.2302V24.6414L50.6473 24.1591V23.7641L56.6308 22.6746Z" fill="#20201D"/>
<path d="M71.6466 23.0365V18.5041L70.0082 17.9386V17.5768L76.0425 16.4832L76.6168 16.5622V36.0266L78.2847 36.6212V37.1243L72.3307 37.9144L71.8662 37.8603V36.2511H71.7311C70.857 37.1119 69.6535 37.8894 67.7702 37.8894C64.5187 37.8894 62.1456 35.4444 62.1456 30.4422C62.1456 25.1696 64.903 22.5791 69.0835 22.5791C70.2785 22.5791 71.1822 22.7953 71.6466 23.0365ZM71.634 35.4985V23.864C71.2497 23.6228 70.9752 23.3234 69.9829 23.3567C68.3698 23.4107 67.3733 25.8141 67.3733 30.0887C67.3733 33.935 68.0911 36.0848 70.2405 36.0141C70.8443 35.9933 71.3342 35.7812 71.634 35.4985Z" fill="#20201D"/>
<path d="M84.9144 22.662L85.4338 22.716V36.2218L86.7977 36.9661V37.5149H79.0448V36.9702L80.4383 36.2259V24.8492L78.7704 24.2047V23.7556L84.9144 22.662ZM85.4633 19.0153C85.4633 20.4415 84.2345 21.5143 82.8157 21.5143C81.342 21.5143 80.1934 20.4374 80.1934 19.0153C80.1934 17.589 81.342 16.4871 82.8157 16.4871C84.2345 16.4871 85.4633 17.589 85.4633 19.0153Z" fill="#20201D"/>
<path d="M103.71 36.2259V24.7244L102.071 24.1589V23.6017L108.025 22.5081L108.625 22.5622V24.2837H108.789C110.073 23.1527 111.986 22.4291 113.869 22.4291C116.462 22.4291 117.611 23.6392 117.611 26.3295V36.201L119 36.9661V37.5149H111.247V36.9702L112.641 36.2259V26.5998C112.641 25.1195 111.986 24.529 110.757 24.529C109.963 24.529 109.313 24.7286 108.709 25.1694V36.2218L110.073 36.9661V37.5149H102.316V36.9702L103.71 36.2259Z" fill="#20201D"/>
<path d="M95.108 28.9989V27.0695C95.108 24.163 94.4662 23.2108 92.6419 23.2108C92.4266 23.2108 92.2408 23.2357 92.0254 23.2648L88.7782 27.5976H88.3221V23.6099C89.7156 23.1858 91.4596 22.6868 93.7694 22.6868C97.7387 22.6868 100.049 23.7721 100.049 27.0446V36.4503L101.472 36.8204V37.1905C100.91 37.5356 99.7825 37.8516 98.5453 37.8516C96.5859 37.8516 95.6485 37.2196 95.2178 36.1593H95.0827C94.2508 37.2695 93.0727 37.9015 91.2189 37.9015C88.8584 37.9015 87.2495 36.4503 87.2495 33.9388C87.2495 31.5063 88.7782 30.1882 91.8903 29.606L95.108 28.9989ZM95.108 35.4981V29.685L94.1157 29.764C92.5575 29.8971 91.9959 30.8742 91.9959 33.0407C91.9959 35.39 92.7728 36.0013 93.875 36.0013C94.4915 35.9971 94.842 35.8141 95.108 35.4981Z" fill="#20201D"/>
<path d="M43.7135 28.9989V27.0695C43.7135 24.163 43.0716 23.2108 41.2432 23.2108C41.0279 23.2108 40.8421 23.2357 40.6267 23.2648L37.3794 27.5976H36.9234V23.6099C38.3169 23.1858 40.0609 22.6868 42.3707 22.6868C46.34 22.6868 48.6498 23.7721 48.6498 27.0446V36.4503L50.0729 36.8204V37.1905C49.5113 37.5356 48.3838 37.8516 47.1466 37.8516C45.1872 37.8516 44.2498 37.2196 43.8191 36.1593H43.6839C42.8521 37.2695 41.6697 37.9015 39.8202 37.9015C37.4597 37.9015 35.8508 36.4503 35.8508 33.9388C35.8508 31.5063 37.3794 30.1882 40.4916 29.606L43.7135 28.9989ZM43.7135 35.4981V29.685L42.7212 29.764C41.163 29.8971 40.6014 30.8742 40.6014 33.0407C40.6014 35.39 41.3783 36.0013 42.4805 36.0013C43.0928 35.9971 43.4432 35.8141 43.7135 35.4981Z" fill="#20201D"/>
</svg>
