<svg width="50" height="20" viewBox="0 0 50 20" fill="none" xmlns="http://www.w3.org/2000/svg">
<rect width="50" height="20" rx="10" fill="#C2D526"/>
<path d="M8.192 5.848H9.716L10.856 9.496C10.968 9.872 11.084 10.284 11.204 10.732C11.324 11.18 11.432 11.604 11.528 12.004C11.64 12.468 11.748 12.936 11.852 13.408H11.912C12.016 12.928 12.12 12.456 12.224 11.992C12.312 11.592 12.412 11.168 12.524 10.72C12.644 10.272 12.76 9.864 12.872 9.496L14 5.848H15.416L12.548 14.5H11.048L8.192 5.848ZM18.641 14.62C17.585 14.62 16.805 14.36 16.301 13.84C15.805 13.32 15.557 12.56 15.557 11.56V10.972C15.557 10.444 15.629 9.988 15.773 9.604C15.917 9.212 16.117 8.892 16.373 8.644C16.629 8.388 16.929 8.2 17.273 8.08C17.617 7.952 17.993 7.888 18.401 7.888C19.345 7.888 20.025 8.132 20.441 8.62C20.857 9.108 21.065 9.86 21.065 10.876V11.68H17.045C17.053 12.04 17.097 12.336 17.177 12.568C17.257 12.792 17.373 12.968 17.525 13.096C17.685 13.224 17.881 13.312 18.113 13.36C18.345 13.408 18.617 13.432 18.929 13.432C19.353 13.432 19.709 13.392 19.997 13.312C20.293 13.224 20.581 13.112 20.861 12.976V14.02C20.645 14.156 20.357 14.292 19.997 14.428C19.645 14.556 19.193 14.62 18.641 14.62ZM18.389 8.968C18.221 8.968 18.057 8.992 17.897 9.04C17.745 9.08 17.605 9.164 17.477 9.292C17.349 9.412 17.245 9.584 17.165 9.808C17.085 10.024 17.041 10.308 17.033 10.66H19.625C19.625 10.012 19.521 9.568 19.313 9.328C19.105 9.088 18.797 8.968 18.389 8.968ZM24.6686 17.068C24.2046 17.068 23.7566 17.024 23.3246 16.936C22.9006 16.848 22.5686 16.732 22.3286 16.588V15.532C22.4246 15.572 22.5446 15.612 22.6886 15.652C22.8326 15.692 22.9926 15.728 23.1686 15.76C23.3526 15.8 23.5446 15.832 23.7446 15.856C23.9446 15.88 24.1446 15.892 24.3446 15.892C24.9846 15.892 25.4526 15.784 25.7486 15.568C26.0526 15.352 26.2046 14.968 26.2046 14.416V13.78H26.1446C25.9526 13.972 25.7166 14.12 25.4366 14.224C25.1646 14.328 24.8246 14.38 24.4166 14.38C24.1126 14.38 23.8086 14.332 23.5046 14.236C23.2086 14.14 22.9446 13.98 22.7126 13.756C22.4806 13.532 22.2926 13.232 22.1486 12.856C22.0046 12.48 21.9326 12.016 21.9326 11.464V11.08C21.9326 10.496 22.0006 10 22.1366 9.592C22.2726 9.184 22.4606 8.856 22.7006 8.608C22.9486 8.352 23.2406 8.168 23.5766 8.056C23.9206 7.944 24.2966 7.888 24.7046 7.888C25.0726 7.888 25.3846 7.944 25.6406 8.056C25.8966 8.16 26.1046 8.268 26.2646 8.38H26.3246L26.4326 8.008H27.6446V14.56C27.6446 15.016 27.5766 15.404 27.4406 15.724C27.3126 16.044 27.1206 16.304 26.8646 16.504C26.6166 16.704 26.3086 16.848 25.9406 16.936C25.5726 17.024 25.1486 17.068 24.6686 17.068ZM24.9086 13.264C25.2366 13.264 25.5046 13.216 25.7126 13.12C25.9206 13.024 26.0846 12.928 26.2046 12.832V9.352C26.0926 9.264 25.9246 9.188 25.7006 9.124C25.4766 9.06 25.2326 9.028 24.9686 9.028C24.7206 9.028 24.5006 9.056 24.3086 9.112C24.1166 9.168 23.9526 9.268 23.8166 9.412C23.6886 9.556 23.5886 9.752 23.5166 10C23.4526 10.24 23.4206 10.548 23.4206 10.924V11.392C23.4206 11.768 23.4566 12.08 23.5286 12.328C23.6006 12.568 23.7006 12.76 23.8286 12.904C23.9566 13.04 24.1126 13.136 24.2966 13.192C24.4806 13.24 24.6846 13.264 24.9086 13.264ZM30.7181 14.62C30.1421 14.62 29.6781 14.468 29.3261 14.164C28.9741 13.86 28.7981 13.392 28.7981 12.76C28.7981 12.16 28.9741 11.712 29.3261 11.416C29.6781 11.112 30.1701 10.92 30.8021 10.84L32.2421 10.648V10.156C32.2421 9.948 32.2181 9.776 32.1701 9.64C32.1221 9.504 32.0421 9.4 31.9301 9.328C31.8261 9.248 31.6821 9.192 31.4981 9.16C31.3221 9.128 31.1021 9.112 30.8381 9.112C30.5341 9.112 30.2461 9.132 29.9741 9.172C29.7101 9.212 29.4821 9.252 29.2901 9.292V8.248C29.8741 8.008 30.5781 7.888 31.4021 7.888C32.1301 7.888 32.6901 8.04 33.0821 8.344C33.4821 8.648 33.6821 9.144 33.6821 9.832V14.5H32.4941L32.3741 13.852H32.3021C32.1501 14.06 31.9501 14.24 31.7021 14.392C31.4541 14.544 31.1261 14.62 30.7181 14.62ZM31.1621 13.576C31.3861 13.576 31.5901 13.544 31.7741 13.48C31.9661 13.408 32.1221 13.316 32.2421 13.204V11.56L31.1261 11.668C30.5341 11.724 30.2381 12.064 30.2381 12.688C30.2381 13 30.3221 13.228 30.4901 13.372C30.6581 13.508 30.8821 13.576 31.1621 13.576ZM35.1938 8.008H36.5858V8.704H36.6458C36.9018 8.464 37.2058 8.268 37.5578 8.116C37.9178 7.964 38.2938 7.888 38.6858 7.888C39.2858 7.888 39.7338 8.028 40.0298 8.308C40.3338 8.588 40.4858 9.044 40.4858 9.676V14.5H39.0458V10.036C39.0458 9.708 38.9778 9.476 38.8418 9.34C38.7058 9.196 38.4298 9.124 38.0138 9.124C37.7818 9.124 37.5378 9.16 37.2818 9.232C37.0338 9.296 36.8178 9.376 36.6338 9.472V14.5H35.1938V8.008Z" fill="#20201D"/>
</svg>
