<svg width="74" height="20" viewBox="0 0 74 20" fill="none" xmlns="http://www.w3.org/2000/svg">
<rect width="74" height="20" rx="10" fill="#1A7363"/>
<path d="M8.192 5.848H9.716L10.856 9.496C10.968 9.872 11.084 10.284 11.204 10.732C11.324 11.18 11.432 11.604 11.528 12.004C11.64 12.468 11.748 12.936 11.852 13.408H11.912C12.016 12.928 12.12 12.456 12.224 11.992C12.312 11.592 12.412 11.168 12.524 10.72C12.644 10.272 12.76 9.864 12.872 9.496L14 5.848H15.416L12.548 14.5H11.048L8.192 5.848ZM18.641 14.62C17.585 14.62 16.805 14.36 16.301 13.84C15.805 13.32 15.557 12.56 15.557 11.56V10.972C15.557 10.444 15.629 9.988 15.773 9.604C15.917 9.212 16.117 8.892 16.373 8.644C16.629 8.388 16.929 8.2 17.273 8.08C17.617 7.952 17.993 7.888 18.401 7.888C19.345 7.888 20.025 8.132 20.441 8.62C20.857 9.108 21.065 9.86 21.065 10.876V11.68H17.045C17.053 12.04 17.097 12.336 17.177 12.568C17.257 12.792 17.373 12.968 17.525 13.096C17.685 13.224 17.881 13.312 18.113 13.36C18.345 13.408 18.617 13.432 18.929 13.432C19.353 13.432 19.709 13.392 19.997 13.312C20.293 13.224 20.581 13.112 20.861 12.976V14.02C20.645 14.156 20.357 14.292 19.997 14.428C19.645 14.556 19.193 14.62 18.641 14.62ZM18.389 8.968C18.221 8.968 18.057 8.992 17.897 9.04C17.745 9.08 17.605 9.164 17.477 9.292C17.349 9.412 17.245 9.584 17.165 9.808C17.085 10.024 17.041 10.308 17.033 10.66H19.625C19.625 10.012 19.521 9.568 19.313 9.328C19.105 9.088 18.797 8.968 18.389 8.968ZM24.6686 17.068C24.2046 17.068 23.7566 17.024 23.3246 16.936C22.9006 16.848 22.5686 16.732 22.3286 16.588V15.532C22.4246 15.572 22.5446 15.612 22.6886 15.652C22.8326 15.692 22.9926 15.728 23.1686 15.76C23.3526 15.8 23.5446 15.832 23.7446 15.856C23.9446 15.88 24.1446 15.892 24.3446 15.892C24.9846 15.892 25.4526 15.784 25.7486 15.568C26.0526 15.352 26.2046 14.968 26.2046 14.416V13.78H26.1446C25.9526 13.972 25.7166 14.12 25.4366 14.224C25.1646 14.328 24.8246 14.38 24.4166 14.38C24.1126 14.38 23.8086 14.332 23.5046 14.236C23.2086 14.14 22.9446 13.98 22.7126 13.756C22.4806 13.532 22.2926 13.232 22.1486 12.856C22.0046 12.48 21.9326 12.016 21.9326 11.464V11.08C21.9326 10.496 22.0006 10 22.1366 9.592C22.2726 9.184 22.4606 8.856 22.7006 8.608C22.9486 8.352 23.2406 8.168 23.5766 8.056C23.9206 7.944 24.2966 7.888 24.7046 7.888C25.0726 7.888 25.3846 7.944 25.6406 8.056C25.8966 8.16 26.1046 8.268 26.2646 8.38H26.3246L26.4326 8.008H27.6446V14.56C27.6446 15.016 27.5766 15.404 27.4406 15.724C27.3126 16.044 27.1206 16.304 26.8646 16.504C26.6166 16.704 26.3086 16.848 25.9406 16.936C25.5726 17.024 25.1486 17.068 24.6686 17.068ZM24.9086 13.264C25.2366 13.264 25.5046 13.216 25.7126 13.12C25.9206 13.024 26.0846 12.928 26.2046 12.832V9.352C26.0926 9.264 25.9246 9.188 25.7006 9.124C25.4766 9.06 25.2326 9.028 24.9686 9.028C24.7206 9.028 24.5006 9.056 24.3086 9.112C24.1166 9.168 23.9526 9.268 23.8166 9.412C23.6886 9.556 23.5886 9.752 23.5166 10C23.4526 10.24 23.4206 10.548 23.4206 10.924V11.392C23.4206 11.768 23.4566 12.08 23.5286 12.328C23.6006 12.568 23.7006 12.76 23.8286 12.904C23.9566 13.04 24.1126 13.136 24.2966 13.192C24.4806 13.24 24.6846 13.264 24.9086 13.264ZM31.9301 14.62C30.8741 14.62 30.0941 14.36 29.5901 13.84C29.0941 13.32 28.8461 12.56 28.8461 11.56V10.972C28.8461 10.444 28.9181 9.988 29.0621 9.604C29.2061 9.212 29.4061 8.892 29.6621 8.644C29.9181 8.388 30.2181 8.2 30.5621 8.08C30.9061 7.952 31.2821 7.888 31.6901 7.888C32.6341 7.888 33.3141 8.132 33.7301 8.62C34.1461 9.108 34.3541 9.86 34.3541 10.876V11.68H30.3341C30.3421 12.04 30.3861 12.336 30.4661 12.568C30.5461 12.792 30.6621 12.968 30.8141 13.096C30.9741 13.224 31.1701 13.312 31.4021 13.36C31.6341 13.408 31.9061 13.432 32.2181 13.432C32.6421 13.432 32.9981 13.392 33.2861 13.312C33.5821 13.224 33.8701 13.112 34.1501 12.976V14.02C33.9341 14.156 33.6461 14.292 33.2861 14.428C32.9341 14.556 32.4821 14.62 31.9301 14.62ZM31.6781 8.968C31.5101 8.968 31.3461 8.992 31.1861 9.04C31.0341 9.08 30.8941 9.164 30.7661 9.292C30.6381 9.412 30.5341 9.584 30.4541 9.808C30.3741 10.024 30.3301 10.308 30.3221 10.66H32.9141C32.9141 10.012 32.8101 9.568 32.6021 9.328C32.3941 9.088 32.0861 8.968 31.6781 8.968ZM37.8016 14.584C37.5296 14.584 37.2856 14.556 37.0696 14.5C36.8536 14.444 36.6656 14.352 36.5056 14.224C36.3536 14.096 36.2336 13.928 36.1456 13.72C36.0656 13.504 36.0256 13.24 36.0256 12.928V9.148H34.9576V8.008H36.0256V6.436H37.4656V8.008H39.1336V9.148H37.4656V12.7C37.4656 12.98 37.5216 13.172 37.6336 13.276C37.7536 13.38 37.9656 13.432 38.2696 13.432C38.4056 13.432 38.5696 13.416 38.7616 13.384C38.9536 13.352 39.1056 13.312 39.2176 13.264V14.248C39.0816 14.336 38.8896 14.416 38.6416 14.488C38.3936 14.552 38.1136 14.584 37.8016 14.584ZM41.7688 14.62C41.1928 14.62 40.7288 14.468 40.3768 14.164C40.0248 13.86 39.8488 13.392 39.8488 12.76C39.8488 12.16 40.0248 11.712 40.3768 11.416C40.7288 11.112 41.2208 10.92 41.8528 10.84L43.2928 10.648V10.156C43.2928 9.948 43.2688 9.776 43.2208 9.64C43.1728 9.504 43.0928 9.4 42.9808 9.328C42.8768 9.248 42.7328 9.192 42.5488 9.16C42.3728 9.128 42.1528 9.112 41.8888 9.112C41.5848 9.112 41.2968 9.132 41.0248 9.172C40.7608 9.212 40.5328 9.252 40.3408 9.292V8.248C40.9248 8.008 41.6288 7.888 42.4528 7.888C43.1808 7.888 43.7408 8.04 44.1328 8.344C44.5328 8.648 44.7328 9.144 44.7328 9.832V14.5H43.5448L43.4248 13.852H43.3528C43.2008 14.06 43.0008 14.24 42.7528 14.392C42.5048 14.544 42.1768 14.62 41.7688 14.62ZM42.2128 13.576C42.4368 13.576 42.6408 13.544 42.8248 13.48C43.0168 13.408 43.1728 13.316 43.2928 13.204V11.56L42.1768 11.668C41.5848 11.724 41.2888 12.064 41.2888 12.688C41.2888 13 41.3728 13.228 41.5408 13.372C41.7088 13.508 41.9328 13.576 42.2128 13.576ZM46.1846 8.008H47.5646V8.896H47.6366C47.7166 8.76 47.8166 8.632 47.9366 8.512C48.0646 8.392 48.2046 8.288 48.3566 8.2C48.5086 8.112 48.6646 8.044 48.8246 7.996C48.9926 7.94 49.1606 7.912 49.3286 7.912C49.5286 7.912 49.6566 7.932 49.7126 7.972V9.292C49.6486 9.276 49.5646 9.264 49.4606 9.256C49.3646 9.248 49.2806 9.244 49.2086 9.244C48.9286 9.244 48.6446 9.288 48.3566 9.376C48.0686 9.456 47.8246 9.56 47.6246 9.688V14.5H46.1846V8.008ZM50.6505 8.008H52.0905V14.5H50.6505V8.008ZM50.6265 5.476H52.1145V6.856H50.6265V5.476ZM55.1517 14.62C54.5757 14.62 54.1117 14.468 53.7597 14.164C53.4077 13.86 53.2317 13.392 53.2317 12.76C53.2317 12.16 53.4077 11.712 53.7597 11.416C54.1117 11.112 54.6037 10.92 55.2357 10.84L56.6757 10.648V10.156C56.6757 9.948 56.6517 9.776 56.6037 9.64C56.5557 9.504 56.4757 9.4 56.3637 9.328C56.2597 9.248 56.1157 9.192 55.9317 9.16C55.7557 9.128 55.5357 9.112 55.2717 9.112C54.9677 9.112 54.6797 9.132 54.4077 9.172C54.1437 9.212 53.9157 9.252 53.7237 9.292V8.248C54.3077 8.008 55.0117 7.888 55.8357 7.888C56.5637 7.888 57.1237 8.04 57.5157 8.344C57.9157 8.648 58.1157 9.144 58.1157 9.832V14.5H56.9277L56.8077 13.852H56.7357C56.5837 14.06 56.3837 14.24 56.1357 14.392C55.8877 14.544 55.5597 14.62 55.1517 14.62ZM55.5957 13.576C55.8197 13.576 56.0237 13.544 56.2077 13.48C56.3997 13.408 56.5557 13.316 56.6757 13.204V11.56L55.5597 11.668C54.9677 11.724 54.6717 12.064 54.6717 12.688C54.6717 13 54.7557 13.228 54.9237 13.372C55.0917 13.508 55.3157 13.576 55.5957 13.576ZM59.6274 8.008H61.0194V8.704H61.0794C61.3354 8.464 61.6394 8.268 61.9914 8.116C62.3514 7.964 62.7274 7.888 63.1194 7.888C63.7194 7.888 64.1674 8.028 64.4634 8.308C64.7674 8.588 64.9194 9.044 64.9194 9.676V14.5H63.4794V10.036C63.4794 9.708 63.4114 9.476 63.2754 9.34C63.1394 9.196 62.8634 9.124 62.4474 9.124C62.2154 9.124 61.9714 9.16 61.7154 9.232C61.4674 9.296 61.2514 9.376 61.0674 9.472V14.5H59.6274V8.008Z" fill="#F9F9F5"/>
</svg>
